<svg xmlns="http://www.w3.org/2000/svg" xml:space="preserve" width="112.326" height="66" x="0px" y="0px" viewBox="0 0 112.326 66"><g style="fill:#501616"><g style="fill:#fff"><path fill="#FFF" d="m75.415 35.666-16.299 6.9-5.604-13.238a2.329 2.329 0 0 0-3.055-1.237 2.33 2.33 0 0 0-1.238 3.055l2.516 5.939-12.449 5.271-8.058-19.031a2.33 2.33 0 0 0-4.293 1.818l8.058 19.031-5.436 2.301a2.33 2.33 0 1 0 1.818 4.292l22.176-9.389 5.18 12.231a2.33 2.33 0 1 0 4.293-1.817l-2.09-4.935 16.299-6.899a2.33 2.33 0 0 0-1.818-4.292z" style="fill:#fff" transform="matrix(1.07205 0 0 1.07205 -1.124 -3.897)"/><path fill="#FFF" d="M26.586 26.369c-4.824.037-8.778-3.857-8.814-8.679-.037-4.825 3.858-8.777 8.682-8.814 4.823-.037 8.776 3.857 8.813 8.682.036 4.821-3.858 8.775-8.681 8.811zm-.093-12.366a3.626 3.626 0 0 0-3.594 3.647 3.626 3.626 0 0 0 3.648 3.592 3.625 3.625 0 0 0 3.592-3.647 3.623 3.623 0 0 0-3.646-3.592zM48.933 33.364c-4.822.036-8.777-3.858-8.814-8.681-.036-4.824 3.859-8.777 8.681-8.814 4.824-.037 8.777 3.857 8.814 8.682.037 4.823-3.857 8.777-8.681 8.813zm-.094-12.367a3.625 3.625 0 0 0-3.592 3.647 3.623 3.623 0 0 0 3.646 3.593 3.625 3.625 0 0 0 3.592-3.647 3.622 3.622 0 0 0-3.646-3.593zM33.094 51.146c.037 4.822-3.857 8.778-8.681 8.814-4.824.036-8.777-3.858-8.813-8.682-.036-4.823 3.857-8.777 8.681-8.814 4.823-.035 8.777 3.859 8.813 8.682zm-12.367.094a3.623 3.623 0 0 0 3.647 3.592 3.625 3.625 0 0 0 3.593-3.646 3.623 3.623 0 0 0-3.647-3.592 3.623 3.623 0 0 0-3.593 3.646zM73.78 34.536c-.037-4.822 3.855-8.777 8.68-8.814 4.824-.037 8.775 3.859 8.813 8.682.037 4.824-3.857 8.777-8.682 8.813-4.822.036-8.776-3.857-8.811-8.681zm12.367-.093a3.628 3.628 0 0 0-3.65-3.592 3.626 3.626 0 0 0-3.592 3.646 3.624 3.624 0 0 0 3.648 3.592 3.626 3.626 0 0 0 3.594-3.646z" style="fill:#fff" transform="matrix(1.07205 0 0 1.07205 -1.124 -3.897)"/></g></g></svg>