<svg xmlns="http://www.w3.org/2000/svg" width="1200" height="600"><clipPath id="a"><path d="M0 0v150h700v150H600zm0 300v50h300V0h300z"/></clipPath><path fill="#012169" d="M0 0h1200v600H0z" style="stroke:none"/><path d="m0 0 444.663 222.331L600 300m0-300L0 300" style="fill:none;stroke:#fff;stroke-width:60"/><path stroke="#e4002b" stroke-width="40" d="m0 0 600 300m0-300L0 300" clip-path="url(#a)" style="fill:none"/><path stroke="#fff" stroke-width="100" d="M0 150h700M300 0v350" style="fill:none"/><path stroke="#e4002b" stroke-width="60" d="M0 150h700M300 0v350" style="fill:none"/><path fill="#012169" d="M0 300h600V0h600v600H0z" style="stroke:none"/><circle cx="900" cy="300" r="133.3" style="fill:#ffa400;stroke:none;stroke-width:1.33299994"/><path d="m842.624 370.783-.69 5.76 112.08.053 1.15-5.813z" style="fill:#40721b;stroke-width:1.33299994"/><path d="m933.017 370.601-2.512 6.488 10.569.418 1.151-6.906zM857.75 370.136l-2.511 6.487 10.568.419 1.151-6.906z" style="fill:#012169;stroke-width:1.33299994"/><path d="m863.527 229.262-1.48 16.579-2.96 14.507 7.697 18.947 1.48 7.994c4.383 3.81 5.835 7.036 7.993 12.434l7.994.888 7.105-1.48c3.746-7.546 3.55-13.851 2.96-21.908 8.31 1.97 14.084 5.493 18.652 12.138l2.369 10.658c5.817 1.222 8.361.355 13.026-2.664l6.218-8.586 2.96-11.25c1.829-6.599 3.668-13.193 5.33-19.836l-1.777-10.362 1.184-14.507 26.645 26.35c4.05 50.586-6.943 51.233-50.33 70.165l-4.736 22.5 20.131 17.172-17.17 2.072 12.434 12.73-6.514 12.73c-20.243 5.327-31.743 3.752-50.921-3.256-2-3.873-2.667-7.076-2.369-11.25l11.546-11.25c-4.703-1.195-9.42-.757-14.21-.592 2.496-5.297 7.285-8.6 11.546-12.435l7.697-2.368-1.776-13.323-5.625-19.54-32.566-19.835c-13.047-45.393-23.98-53.65 17.467-73.422z" style="fill:#fff;stroke-width:1.33299994"/><path d="M858.244 191.179c-2.79 1.49-4.656 4.923-5.271 8.121 1.548 7.505-.236 15.167-.308 22.827-1.938-3.52-2.328-7.654-3.404-11.567-1.939-4.14-2.707-10.398-7.732-11.567-3.333 4.927-.246 11.023-.329 16.571.626 3.116 4.03 5.864 1.867 9.373l-7.117-10.009c-2.4-2.66-5.27-6.645-8.675-6.563-.698 6.563 3.26 11.179 5.27 16.572.175.59.431 1.154.739 1.681h.123c1.116 1.883 2.722 3.617 2.543 5.62-2.676-1.894-5.24-3.92-7.814-5.825h-.307c-4.32-3.124-8.706-5.828-13.865-6.788-.287 2.64.605 4.892 2.03 6.993h.165c2.345 3.337 5.95 6.276 8.019 9.701l-.615.616a89.303 89.303 0 0 1-12.08-6.563c-2.554-.549-5.045-3.125-7.753-1.251 0 4.999 3.169 8.9 6.502 12.182-4.184.549-8.83-2.422-13.003 0 .851 3.747 5.343 6.026 6.501 9.7-3.948 2.112-9.198.764-13.31 2.482 1.015 2.971 3.948 5.082 5.578 7.814l-.943.944c-3.25 0-5.712 2.117-8.347 3.753.39 3.757 5.024 5.78 6.809 9.373-3.025 1.956-6.358 4.615-8.368 7.814 1.713 2.4 4.297 3.653 6.153 5.496h.164c.427.467.814.955 1.128 1.497-2.246 3.043-6.676 4.925-6.83 9.065 2.175 2.495 5.733 2.658 8.368 4.697-1.323 2.422-3.876 4.598-3.097 7.486 3.477 1.883 7.906 1.643 11.772 2.502-1.005 2.494-1.794 5.081-2.173 7.814 2.317 3.043 7.372 1.725 10.541 2.502-.225 2.505-1.938 5.223-2.174 8.121 3.015 1.946 6.81.246 10.214.328 2.02-.476 2.245 1.783 2.481 3.118.616 4.368 4.963.769 7.753 1.866l3.097 5.312c1.702.155 3.24-.147 4.635-.923 2.482-1.563 3.65 1.33 4.655 2.81 1.785 2.815 4.338 0 6.502 0 1.62.787 2.245 2.5 3.404 3.753 2.318 1.325 3.63-1.557 5.25-2.81 3.098-1.645 4.276 3.112 6.83 3.733 2.943-2.422 6.193-3.191 9.906-1.866 4.102-3.52 3.64-8.987 4.02-14.07.318-.859.625-2.277 1.866-2.194 1.475 6.172 5.04 12.944 2.523 19.114h-.062c-.38.828-.882 1.725-1.538 2.585-7.425 5.392-12.705 17.405-24.16 13.74-4.645 4.141-13.156-.701-16.715 5.313-.697 2.028-.236 4.384 1.231 5.947 2.79 1.718 7.445 1.234 9.926.923 1.703 1.014 3.312 1.973 5.558 1.58 1.939-3.044 4.03-.076 6.194.307 2.246.083 4.102-2.742 6.194-1.251-2.092 3.436-4.481 6.639-5.25 10.624-.236 2.815 4.327 2.03 3.096 5.311.687 2.422 3.251 1.568 4.635 2.81.164 4.068 4.635 2.984 7.117 4.081.77 7.029 8.44-.953 9.906 5.62 1.63 0 2.871-1.093 4.348-1.559 1.856.228 3.24 2.346 4.327 3.753 3.097 2.495 4.256-1.657 6.502-3.137l5.578 2.194 3.712-4.368c4.338 3.198 5.876-3.212 9.906-1.887 2.79.32 2.472-2.889 3.712-4.369 4.8.704 4.102-6.03 8.676-5.947.307-5.466-4.574-8.662-5.886-13.434 1.856-1.087 3.343.544 4.655 1.559 2.861.942 4.338-1.49 6.502-2.195 3.948 6.17 7.895-2.333 13.002-.615 2.328-.787 4.481-3.215 4.02-5.947-.543-1.253-1.312-2.88-2.79-3.118-7.66.942-12.837-4.217-20.734-2.81l-13.003-12.51c-1.353-.932-2.338-2.02-3.014-3.2h-.103c-2.488-4.59-.637-10.567.636-15.36.154-.932 1.158-2.488 2.481-1.867 3.015 4.223 1.313 10.937 6.194 14.684 1.467.86 3.097 1.183 4.328-.307 2.02-1.874 4.183.548 5.27 2.194 1.62.228 2.625-1.097 3.712-2.194 2.329-1.957 4.338.857 6.502 1.25 1.159-.941 2.092-2.51 3.097-3.752 1.856-1.098 3.086 1.02 4.635 1.558 2.861.87 2.953-3.514 4.963-5.004 2.246-.072 3.876 1.406 6.194 1.251l2.481-4.368c2.472-2.888 5.578.24 8.676-.308l4.02-5.948 6.5-.307c1.703-1.874 1.631-4.529 1.56-7.178 3.25-2.112 7.803-1.015 11.444-2.195.236-2.805-1.385-5.79-2.461-8.45 3.097-1.563 7.198-.769 10.52-1.866 1.088-3.913-2.942-6.882-3.711-10.008l9.598-4.677c-.154-3.519-4.563-4.69-5.886-7.506a27.666 27.666 0 0 1 2.256-1.476h.328c2.123-1.232 4.317-2.244 6.399-3.63l.307-1.58c-2.943-3.198-6.737-5.46-10.52-7.178l-.308-.943 6.809-6.256v-1.558c-2.718-2.733-6.82-2.27-9.927-4.061 1.549-3.281 6.522-4.375 7.137-8.122-1.938-2.267-4.809-2.109-7.445-2.502-1.774 0-3.783 1.253-5.25 0 1.939-3.592 6.194-5.387 7.117-9.373-6.03-2.422-12.162 1.643-17.658 2.503 1.63-2.578 3.64-4.62 6.193-6.256 2.4-2.267 7.199-4.53 5.886-8.121-5.958 0-10.92 2.344-15.792 5.004-3.558 1.252-6.5 4.998-9.906 5.62 2.472-3.199 6.491-5.166 9.27-8.758 1.812-1.99 2.159-4.59 3.303-6.87h.123c.512-.963 1.179-1.85 2.174-2.605.235-1.801 2.245-3.532.615-5.333-5.128 1.294-9.903 4.198-14.11 7.773h-.226c-2.584 2.247-4.932 4.755-7.035 7.343l-.636-.616c1.444-2.109 2.359-4.395 3.61-6.563h.103c.82-1.386 1.774-2.706 3.117-3.876 1.856-4.068 5.579-8.982 2.79-13.433-7.936 2.393-12.126 10.978-16.757 17.084h-.164c-.143.186-.287.347-.43.533a2.485 2.485 0 0 1-.37-.513h-.082c-.412-.915-.347-1.993-.471-3.035 4.41-5.776 4.245-13.59 4.942-20.94.072-1.242-.994-2.663-2.153-1.887-4.882 3.675-6.194 9.295-8.368 14.377l-.615-.615v-12.51c-.308-3.365-1.487-7.498-4.963-8.43-3.559 3.51-2.164 9.055-3.712 13.434-1.385 0-1.63-1.643-2.482-2.502-.461-.466-1.538-.459-1.846.328-.406 7.406-.424 14.609-.225 21.76.003.075-.003.15 0 .225.302 10.44 1.081 20.712 1.763 31.256-4.755 9.425-4.05 21.093-6.994 27.43-2.942 6.337-4.942 9.238-7.875 11.743-2.707 2.111-6.03-.068-9.27.635-1.784-2.194-1.63-5.236-2.481-7.813a23.782 23.782 0 0 0-.554-1.375h-.082c-4.775-10.675-16.851-13.686-26.313-17.494-1.082-.114-2.477-.37-3.795-.39-1.317-.019-2.548.203-3.322 1.026 3.405 1.718 6.973 3.67 9.29 7.178l-.615.636c-2.86-1.014-6.193-1.9-9.29-1.58 1.856 5.238 8.04 5.869 11.136 10.01.031.258.072.53.103.799h.02c.402 3.522.48 7.486-2.912 9.619-2.554 1.718-3.702-1.711-5.866-1.867-2.174-.238-4.891 1.942-6.522-.635-.338-2.909-2.327-5.097-4.518-7.577-2.19-2.48-4.306-5.267-3.214-9.405-3.794-7.577-6.275-15.626-6.5-24.693 1.078-9.062 3.944-18.247 5.29-27.503h.041c1.026-7.193 1.118-14.432-1.312-21.678-2.318.156-2.625 2.977-4.635 3.754l-.616-.636c.154-5-.174-9.771-.943-14.377zm2.481 45.14c.154 4.69 1.23 9.376-.943 13.434.697-4.451-6.41-10.701.943-13.434zm82.98 3.733c1.784.083 1.63 2.124 2.482 3.138-.698 2.577-2.564 5.461-1.252 8.121 1.703-1.097 1.56-4.075 3.733-4.696-.318 3.364-1.559 7.048-3.733 10.008-2.317-4.761-2.153-11.261-1.23-16.571zm-88.866 3.753c1.938 2.505 1.63 6.482 2.482 9.68-1.703-2.577-4.574-6.399-2.482-9.68zm97.234 6.563c-.39 2.97-2.953 5.79-4.964 8.45h-.307c.236-3.054 2.87-6.41 5.27-8.45zm-100.639.328c2.093 1.325 3.323 4.123 4.943 6.235-1.24 6.169-2.246 12.03-.923 18.438-2.092.082-3.64-1.16-5.27-2.174-.77-1.098-1.077-2.346-.923-3.754 1.548-.703 2.953 2.644 4.655.616-.39-3.054-4.266-4.066-5.27-6.87 2.245-1.574 4.419 3.28 5.885 0-.933-2.661-6.122-3.66-4.655-7.179l3.097 1.559c.153-2.578-2.318-4.449-1.538-6.87zm101.254 5.312c1.005-.155 1.466 1.007 1.23 1.866-.625 3.054-4.409 5.16-6.809 7.199-1.015-3.447 3.107-6.332 5.579-9.065zm1.538 7.814c1.395.549 0 1.47 0 2.174-1.395 2.194-4.255 2.106-6.501 2.81.769-2.112 3.948-4.28 6.501-4.984zm-3.097 6.235c.462 0 1.323-.068 1.251.636.154 2.97-3.26 1.557-4.655 2.81-.852-1.802 2.092-2.825 3.404-3.446zm-63.475 3.445c3.097-.155 5.424 2.186 5.27 5.312-.697 1.563.38 4.448-2.174 4.676-2.163-.155-3.876-1.312-5.578-2.481 2.092-1.015 5.199 2.104 7.137-.329.39-3.198-2.8-4.91-4.655-7.178zm-23.832 3.753c2.225 3.116 1.19 7.967 3.261 11.424h.144c.52.797 1.2 1.522 2.153 2.112 3.097 2.04 3.958 5.549 4.963 8.758.236 2.888-1.312 5.39-3.712 6.87-1.313.083-2.256-.849-2.174-2.174-.543-1.014 1.17-1.87-.308-2.502-1.62 1.097-3.107 3.364-5.27 2.195-.77-2.195 1.25-3.992 1.866-5.948-2.472-.31-4.256 3.823-7.424 1.866-.698-2.65 1.538-4.053 2.768-5.927-2.471-1.407-4.327 1.398-6.809 0 .154-2.277 3.948-3.05 5.886-4.696-.317-.218-.676-.45-1.046-.698h-.287c-1.513-1.062-3.128-2.444-3.302-4.409 2.862-1.563 4.79 2.983 7.425.943.072-2.339-2.708-4.378-1.23-6.563 1.086.466 1.855 1.643 2.788 2.503 1.939-.549.226-2.501.308-3.754zm75.863.308c.544 1.408-1.159 2.656.308 3.753 1.702-.155 1.702-2.342 3.712-1.866 1.548 3.281-5.117 4.531-2.174 6.87 1.702-.62 3.712-2.578 5.578-.943-.056 1.71-1.535 2.293-2.707 3.097h-.287c-.461.362-.85.805-1.025 1.395 2.707.155 5.26 1.158 6.809 3.425.471 1.252-.933 1.714-1.867 1.558-2.328.466-4.727-.931-6.501 0 1.395 2.422 5.045 2.819 4.656 6.256-3.18 1.252-5.2-2.11-8.06-2.503-.78 2.267 2.953 3.453 2.481 5.948-2.861.942-4.953-1.968-7.117-3.138-.543 1.49.452 3.054 1.23 4.39-2.245 1.096-4.49-.547-5.578-2.503-3.097-4.45 2.718-7.502 4.04-11.26 1.034-1.023 1.79-2.16 2.4-3.363h.103c1.723-3.53 2.174-7.607 4-11.116zm-41.572 2.461c.387-.02.698.072.698.656.071.632-.082 1.645-.923 1.252h-.944v-1.867c.308.12.782-.02 1.17-.04zm8.737 5.66c1.508.684 2.687 1.743 3.569 2.995h.123c1.512 2.282 2.144 5.214 2.194 8.06-3.025 11.096-1.477 24.07 3.405 33.758l-1.23 7.814c-4.103-.621-1.17 4.361-2.482 6.235-.505 2.137-1.436 4.097-2.523 5.988h-.123c-.739 1.294-1.549 2.562-2.318 3.836l1.559.923c-1.856 5.94-4.255 11.957-9.598 16.263-6.112-3.757-8.44-10.78-10.214-17.186h2.154c-.154-1.274-.636-2.552-1.23-3.815h-.103c-.86-1.78-1.935-3.584-2.687-5.373-1.549-2.433 2.01-7.282-1.867-7.2l-.615.637c-6.04-11.096 4.492-20.628 3.712-32.2.852-2.028-2.01-5.622 1.867-5.311 5.414.155 10.141-2.735 13.002-7.507.888-1.373.933-3.241 1.272-4.901h.041c.297-1.284.8-2.415 2.092-3.015zm5.579 69.937c2.245 2.65 5.578 2.48 8.367 3.732 2.933 2.423 5.948 5.1 8.347 8.142-6.43-.548-15.33 3.188-19.196-4.389zm-26.109 1.866c1.255.077 2.112 1.365 2.257 5.004-3.323 7.028-11.998 6.096-18.89 5.62.39-2.267 3.795-4.292 5.887-5.927 3.3.804 7.987-4.866 10.746-4.697zm1.026 11.26c-3.948 5.31-9.752 8.748-14.233 14.069h-.944c.462-4.379 5.958-6.503 8.983-9.701zm19.812 0h.943c6.348 6.251 11.064 12.335 16.407 19.052.083 1.015-.01 1.964-.943 2.503-5.333-7.494-11.762-13.74-16.407-21.556zm4.348 0c5.65 4.057 10.203 9.446 15.156 14.684v.943c-5.65-4.378-10.439-10.318-15.156-15.628zm-5.579 2.173 13.618 19.382c-.154.786.39 1.8-.615 2.194-3.723-7.194-11.762-13.45-13.003-21.576zm19.34.513c1.654-.02 3.256.319 4.184 1.374-.308 1.015-.451 2.106-1.538 2.81-2.943 1.17-4.953-1.883-7.117-3.445 1.123-.352 2.818-.718 4.471-.739zm25.821.041c1.318-.02 2.482.2 3.138 1.333-.933 5.165-7.424 1.868-11.136 2.81.225-2.111 2.553-3.046 4.02-4.06 1.2.19 2.66-.062 3.978-.083zm-12.182.041c.88-.019 1.697.072 2.317.657.072 1.48-1.548 2.744-2.789 3.137-1.477.622-3.548.31-4.327-.943-.38-1.718 1.005-2.344 2.174-2.81.81.114 1.744-.021 2.625-.04zm-77.73.308c.93 0 1.872.116 2.646.349.851 1.325-.01 3.29-1.559 3.445-2.246-.228-3.722.554-5.578-.615.308-1.097.943-2.044 1.866-2.83.774-.233 1.695-.35 2.625-.35zm13.167 0c.774 0 1.554.116 2.174.349-1.784 1.014-3.568 5.64-6.83 3.445-.225-1.563 1.395-2.659 2.482-3.445.62-.233 1.4-.35 2.174-.35zm13.926.04c-1.785 6.015-10.142 9.767-13.003 15.936h-.615c1.938-6.407 8.972-10.936 13.618-15.935zm3.712 0c-2.164 7.112-8.265 12.664-11.444 19.382-.544.238-.861-.305-1.251-.615 3.487-6.573 7.588-13.456 12.695-18.766zm2.174 0c-.626 7.971-4.574 15.403-6.809 23.135-.933.86-2.092-.392-2.482-1.25 1.703-7.888 6.194-14.618 9.291-21.884zm-47.745.165c2.284-.09 5.13.627 7.178.144l.636.635c.072 1.49-1.549 2.735-2.79 3.118-2.707.155-6.972 1.336-8.675-1.251.444-2.015 1.874-2.576 3.65-2.646zm56.728 1.087h.615c2.636 6.635 7.814 12.27 9.29 19.381.308 1.097-.994 2.412-1.845 2.174-2.092-7.421-6.83-13.75-8.06-21.555zm-6.194 1.559c.072 6.728 3.333 16.264-4.02 20.632h-.943c-.38-7.732 2.717-14.298 4.963-20.632zm3.097 0h.923c2.636 6.417 3.887 13.746 3.733 20.94-9.138-3.913-3.497-14.212-4.656-20.94z" style="fill:#231f20;stroke-width:1.33299994"/></svg>